# xmcd CD database file
#
# Track frame offsets:
#	150
#	18679
#	37500
#	56829
#	72743
#	84612
#	114169
#	131343
#	142699
#	156091
#	176520
#	185951
#	202620
#	218767
#
# Disc length: 3107 seconds
#
# Revision: 0
# Processed by: cddbd v1.5.2PL0 Copyright (c) Steve Scherf et al.
# Submitted via: CDex 1.70beta2
#
DISCID=bb0c210e
DTITLE=Herbie mann - Morning After
DYEAR=1975
DGENRE=Jazz
TTITLE0=Herbie's buddy
TTITLE1=Perdido
TTITLE2=Baubles, banglers and beads
TTITLE3=Give a little whistle
TTITLE4=Here's Pete
TTITLE5=Theme from "Theme from"
TTITLE6=Nancy with the laughing face
TTITLE7=Morning after
TTITLE8=African flute
TTITLE9=Bacao
TTITLE10=Calypso John
TTITLE11=Carabunta
TTITLE12=Answer me
TTITLE13=Love chant
EXTD=YEAR: 1975
EXTT0=
EXTT1=
EXTT2=
EXTT3=
EXTT4=
EXTT5=
EXTT6=
EXTT7=
EXTT8=
EXTT9=
EXTT10=
EXTT11=
EXTT12=
EXTT13=
PLAYORDER=
